<svg xmlns="http://www.w3.org/2000/svg" viewBox="0 0 582.006 127.16"><style>.st0{fill:#4b4b4d}</style><path class="st0" d="M264.165 11.556L217.831 127.16h-7.103l46.484-115.604z"/><path fill="#009982" d="M119.044 14.628h78.93v25.119h-39.563v15.925h37.494v25.043h-37.494v17.843h40.399v25.893h-79.766z"/><path class="st0" d="M73.873 58.845l14.773-36.698c6.461.247 11.861 2.324 21.756 8.336v-9.329c-8.02-4.658-15.88-6.912-23.888-6.912-16.323 0-29.622 12.863-29.622 29.104 0 8.8 2.912 14.646 7.31 18.909l-18.197 45.108-37.74-92.777H0l44.758 110.783h2.339l23.498-58.378c14.535 8.449 35.422 9.716 35.422 30.061 0 12.381-9.531 21.865-21.772 21.865-8.009 0-14.507-2.894-25.994-11.736v9.969c9.067 6.431 17.985 9.648 26.447 9.648 16.777 0 29.936-13.186 29.936-30.069 0-28.352-26.737-28.176-40.761-37.884m-8.366-15.822c0-9.398 5.858-16.97 14.421-19.745L68.007 52.827c-1.58-2.627-2.5-5.81-2.5-9.804M67.441 0h38.103v7.764H67.441zM291.523 17.949h-10.529v7.482h10.529v3.483h-10.529v12.549h-3.88V14.467h14.409zM316.581 41.463h-3.959l-3.603-7.958H297.54l-3.404 7.958h-3.958l11.597-27.155h2.731l12.075 27.155zm-9.143-11.44l-4.354-9.778-4.039 9.778h8.393zM340.768 20.483c-2.851-1.624-6.057-2.69-9.342-2.69-6.531 0-10.688 4.828-10.688 10.251 0 5.027 3.563 10.172 10.728 10.172 3.404 0 6.729-1.147 9.579-3.008v4.235c-3.127 1.702-6.373 2.376-9.816 2.376-10.014 0-14.528-7.522-14.528-13.815 0-7.442 6.059-13.895 14.607-13.895 4.157 0 7.719 1.466 9.461 2.217v4.157zM368.24 29.785c0 2.612 0 6.374-3.049 9.104-2.414 2.138-5.422 2.93-8.51 2.93-3.8 0-7.996-1.307-10.134-4.711-1.504-2.374-1.504-5.501-1.504-7.323V14.467h3.879v15.318c0 3.563.316 4.949 1.702 6.334 1.147 1.187 2.93 2.256 6.057 2.256 4.354 0 6.254-2.256 6.966-3.563.516-.949.753-2.374.753-5.027V14.467h3.84v15.318zM377.308 37.939h12.151v3.524h-16.07V14.466h3.919zM408.936 17.871h-9.421v23.592h-3.879V17.871h-9.263v-3.404h22.563zM423.345 27.173v14.291h-3.959V27.173l-9.975-12.706h4.67l7.245 9.302 7.323-9.302h4.67zM304.902 69.088c0 7.759-5.938 13.894-14.765 13.894-8.47 0-14.25-6.254-14.25-13.775 0-7.164 5.225-13.933 14.448-13.933 8.986-.001 14.567 6.57 14.567 13.814m-25.017.118c0 6.136 4.829 10.175 10.49 10.175 2.889 0 6.017-1.188 7.877-3.208 1.702-1.858 2.692-4.79 2.692-7.124 0-4.473-3.405-10.134-10.451-10.134-7.56 0-10.608 5.778-10.608 10.291M323.904 59.114h-10.528v7.48h10.528v3.485h-10.528v12.547h-3.88V55.63h14.408zM338.671 55.63h3.88v26.996h-3.88zM373.466 82.625h-3.325l-18.05-20.782v20.782h-3.643V55.629h3.127l18.21 20.941V55.629h3.681zM393.497 59.114h-10.529v7.48h10.529v3.485h-10.529v12.547h-3.88V55.63h14.409zM425.244 69.088c0 7.759-5.938 13.894-14.766 13.894-8.471 0-14.249-6.254-14.249-13.775 0-7.164 5.225-13.933 14.447-13.933 8.986-.001 14.568 6.57 14.568 13.814m-25.017.118c0 6.136 4.829 10.175 10.49 10.175 2.889 0 6.016-1.188 7.877-3.208 1.702-1.858 2.691-4.79 2.691-7.124 0-4.473-3.403-10.134-10.45-10.134-7.56 0-10.608 5.778-10.608 10.291M436.686 55.629c1.267 0 2.93.119 4.632.87 2.889 1.229 4.235 3.919 4.235 6.651 0 3.127-1.584 5.501-4.513 6.651 2.453 1.623 3.958 4.115 6.017 7.441 1.147 1.861 1.821 2.772 3.682 5.383h-4.593c-.909-1.307-4.67-7.202-5.541-8.353-2.652-3.404-3.958-3.404-5.818-3.404h-1.03v11.757h-3.839V55.629h6.768zm-2.93 3.287v8.51h1.505c.594 0 2.691 0 3.761-.395 1.82-.714 2.572-2.416 2.572-3.88 0-1.545-.792-3.009-2.059-3.602-.989-.476-2.256-.633-4.592-.633h-1.187zM478.606 82.625h-3.878v-21.02l-8.313 10.454h-.713l-8.391-10.454v21.02h-3.879V55.629h3.64l8.987 11.084 8.946-11.084h3.601zM507.663 82.625h-3.959l-3.602-7.956h-11.479l-3.404 7.956h-3.958l11.598-27.153h2.731l12.073 27.153zm-9.143-11.44l-4.354-9.774-4.039 9.774h8.393zM526.743 59.033h-9.421v23.592h-3.879V59.033h-9.261v-3.404h22.561zM530.229 55.63h3.879v26.996h-3.879zM562.886 61.647c-2.851-1.624-6.058-2.693-9.343-2.693-6.53 0-10.688 4.829-10.688 10.252 0 5.026 3.563 10.175 10.728 10.175 3.404 0 6.729-1.149 9.579-3.011v4.235c-3.127 1.703-6.373 2.374-9.816 2.374-10.015 0-14.528-7.52-14.528-13.814 0-7.44 6.058-13.893 14.607-13.893 4.156 0 7.719 1.464 9.461 2.217v4.158zM580.937 61.566c-2.295-2.217-4.512-2.811-6.333-2.811-2.652 0-4.274 1.426-4.274 3.127 0 2.298 1.583 3.247 6.729 6.257 1.147.672 2.453 1.621 3.481 3.007.832 1.069 1.466 2.533 1.466 4.472 0 4.236-3.049 7.363-7.838 7.363-2.652 0-5.186-.91-7.283-2.492v-4.91c.792.991 3.206 3.958 7.283 3.958 2.019 0 4.196-1.265 4.196-3.562 0-2.257-2.296-3.917-3.563-4.67-4.275-2.573-5.502-3.326-6.69-4.829-.831-1.07-1.345-2.337-1.345-4.039 0-4.076 3.087-7.164 7.956-7.164 2.217 0 4.354.672 6.214 1.901v4.392zM300.509 123.79h-3.959l-3.602-7.958h-11.479l-3.404 7.958h-3.959l11.598-27.156h2.732l12.073 27.156zm-9.144-11.441l-4.354-9.776-4.038 9.776h8.392zM328.416 123.79h-3.325l-18.05-20.781v20.781h-3.642V96.794h3.127l18.209 20.938V96.794h3.681zM343.143 96.794c2.533 0 6.927 0 10.53 2.771 3.008 2.296 5.185 6.096 5.185 10.728 0 6.847-4.829 10.45-6.491 11.478-3.286 2.021-7.007 2.021-9.777 2.021h-8.551V96.794h9.104zm-5.264 3.442v20.068h4.987c2.018 0 5.186-.157 7.48-1.543 2.732-1.701 4.513-4.987 4.513-8.669 0-3.286-1.502-7.045-5.621-8.868-2.216-.988-4.036-.988-6.491-.988h-4.868zM387.123 102.73c-2.295-2.217-4.512-2.811-6.333-2.811-2.652 0-4.274 1.425-4.274 3.127 0 2.296 1.583 3.246 6.729 6.254 1.147.674 2.453 1.623 3.481 3.009.832 1.069 1.466 2.533 1.466 4.475 0 4.234-3.048 7.361-7.838 7.361-2.652 0-5.186-.909-7.283-2.493v-4.907c.792.987 3.206 3.958 7.283 3.958 2.019 0 4.196-1.269 4.196-3.564 0-2.256-2.296-3.919-3.563-4.672-4.275-2.572-5.502-3.323-6.69-4.829-.831-1.068-1.345-2.334-1.345-4.036 0-4.078 3.086-7.166 7.956-7.166 2.217 0 4.354.675 6.214 1.9v4.394zM412.497 100.197h-9.421v23.594h-3.878v-23.594h-9.263v-3.403h22.562zM435.42 123.79h-3.961l-3.601-7.958h-11.479l-3.404 7.958h-3.959l11.598-27.156h2.732l12.074 27.156zm-9.146-11.441l-4.354-9.776-4.038 9.776h8.392zM454.499 100.197h-9.421v23.594h-3.879v-23.594h-9.261v-3.403h22.561zM457.983 96.794h3.88v26.997h-3.88zM480.468 102.73c-2.296-2.217-4.513-2.811-6.334-2.811-2.652 0-4.274 1.425-4.274 3.127 0 2.296 1.583 3.246 6.729 6.254 1.147.674 2.453 1.623 3.482 3.009.831 1.069 1.465 2.533 1.465 4.475 0 4.234-3.048 7.361-7.839 7.361-2.651 0-5.185-.909-7.282-2.493v-4.907c.792.987 3.206 3.958 7.282 3.958 2.02 0 4.197-1.269 4.197-3.564 0-2.256-2.295-3.919-3.563-4.672-4.275-2.572-5.502-3.323-6.689-4.829-.832-1.068-1.346-2.334-1.346-4.036 0-4.078 3.087-7.166 7.956-7.166 2.217 0 4.354.675 6.215 1.9v4.394zM505.842 100.197h-9.422v23.594h-3.878v-23.594h-9.263v-3.403h22.563zM509.326 96.794h3.88v26.997h-3.88zM541.983 102.81c-2.851-1.624-6.057-2.689-9.342-2.689-6.531 0-10.688 4.828-10.688 10.251 0 5.027 3.562 10.172 10.727 10.172 3.405 0 6.729-1.148 9.579-3.008v4.234c-3.127 1.701-6.373 2.376-9.815 2.376-10.015 0-14.528-7.521-14.528-13.814 0-7.443 6.057-13.896 14.606-13.896 4.157 0 7.719 1.467 9.461 2.218v4.156zM560.035 102.73c-2.296-2.217-4.513-2.811-6.334-2.811-2.652 0-4.274 1.425-4.274 3.127 0 2.296 1.583 3.246 6.729 6.254 1.147.674 2.454 1.623 3.482 3.009.832 1.069 1.466 2.533 1.466 4.475 0 4.234-3.048 7.361-7.839 7.361-2.651 0-5.185-.909-7.283-2.493v-4.907c.792.987 3.206 3.958 7.283 3.958 2.019 0 4.196-1.269 4.196-3.564 0-2.256-2.295-3.919-3.562-4.672-4.276-2.572-5.502-3.323-6.69-4.829-.831-1.068-1.346-2.334-1.346-4.036 0-4.078 3.087-7.166 7.956-7.166 2.217 0 4.354.675 6.215 1.9v4.394z"/></svg>